<?xml version="1.0" encoding="UTF-8"?>
<svg width="18px" height="26px" viewBox="0 0 18 26" version="1.1" xmlns="http://www.w3.org/2000/svg" xmlns:xlink="http://www.w3.org/1999/xlink">
    <title>LOGO Graph</title>
    <defs>
        <linearGradient x1="50%" y1="1.84889275e-30%" x2="50%" y2="100%" id="linearGradient-1">
            <stop stop-color="#54A4F3" offset="0%"></stop>
            <stop stop-color="#DDEFFC" offset="100%"></stop>
        </linearGradient>
        <linearGradient x1="50%" y1="1.84889275e-30%" x2="50%" y2="100%" id="linearGradient-2">
            <stop stop-color="#E94880" offset="0%"></stop>
            <stop stop-color="#FADCE7" offset="100%"></stop>
        </linearGradient>
    </defs>
    <g id="控件" stroke="none" stroke-width="1" fill="none" fill-rule="evenodd">
        <g id="TIA_LOGO_L_Oneline" transform="translate(-9, -1)">
            <g id="LOGO-Graph" transform="translate(10, 2)">
                <path d="M9.3000029,20.0000062 C7.10571108,20.5480478 4.00000125,19.100006 2.30000072,17.5000055 C0.293031856,15.6110936 -1.89182003e-13,11.0000034 2.30000072,8.30000259 L8.0000025,13.3000026 C9.80000306,15.3000026 10.6000033,17.1000053 9.3000029,20.0000062 Z" id="Fill-29" fill="url(#linearGradient-1)"></path>
                <path d="M13.4000042,8.10000253 C14.7463155,9.62415352 15.4026113,10.5681958 15.4000355,12.5000039 C15.3954905,15.8430968 13.973534,18.5420118 10.8000027,19.5000061 C11.0000034,16.5000052 10.5000033,15.0000047 8.80000275,12.5000039 L13.4000042,8.10000253 Z" id="Fill-32" fill="url(#linearGradient-2)"></path>
                <path d="M13.41001,7.357357 L7.99999994,12.5035692 C4.70240798,9.42008245 3.69848194,5.32492121 7.99999994,1.47207719 C8.59072893,0.890515833 9.73699376,0 9.73699376,0 M8,1.47207719 L13.41001,7.357357 C14.9486508,8.87486868 16.0029713,10.8134065 16,12.7367996 C15.9948332,16.0653297 13.5165108,19.3469108 9.88962025,20.300732 C7.79535147,20.8513979 4.39819914,20.3628258 2.30079798,18.2976772 C-0.736254114,15.3071796 -0.766625864,10.4771914 2.20968274,7.44822596 C2.20968274,7.44822596 8,12.5035692 8,12.5035692 C10.3209667,14.7928613 11.1977858,17.3314372 9.88962025,20.300732 C9.38122357,21.454465 8.43573781,23.1104003 7.53376749,24.0000075" id="Stroke-34" stroke="#191C24" stroke-width="2"></path>
            </g>
        </g>
    </g>
</svg>