<?xml version="1.0" encoding="UTF-8"?>
<svg width="14px" height="20px" viewBox="0 0 14 20" version="1.1" xmlns="http://www.w3.org/2000/svg" xmlns:xlink="http://www.w3.org/1999/xlink">
    <title>LOGO Small</title>
    <defs>
        <linearGradient x1="50%" y1="1.84889275e-30%" x2="50%" y2="100%" id="linearGradient-1">
            <stop stop-color="#54A4F3" offset="0%"></stop>
            <stop stop-color="#DDEFFC" offset="100%"></stop>
        </linearGradient>
        <linearGradient x1="50%" y1="1.84889275e-30%" x2="50%" y2="100%" id="linearGradient-2">
            <stop stop-color="#E94880" offset="0%"></stop>
            <stop stop-color="#FADCE7" offset="100%"></stop>
        </linearGradient>
    </defs>
    <g id="控件" stroke="none" stroke-width="1" fill="none" fill-rule="evenodd">
        <g id="LOGO-Small" transform="translate(1, 1)">
            <path d="M6.975,15 C5.32928164,15.411031 3,14.325 1.725,13.125 C0.219773824,11.7083165 6.17617069e-13,8.25 1.725,6.225 L6,9.975 C7.35,11.475 7.95,12.825 6.975,15 Z" id="Fill-29" fill="url(#linearGradient-1)"></path>
            <path d="M9.73182175,5.575 C10.9557351,6.77827673 12.0523646,8.02357299 12.050023,9.54868421 C12.0458912,12.1879672 10.7532099,14.3186889 7.86819637,15.075 C8.05002299,12.7065789 7.59547036,11.5223684 6.05002299,9.54868421 L9.73182175,5.575 Z" id="Fill-32" fill="url(#linearGradient-2)"></path>
            <path d="M10,5.29578488 L6.07591331,9 C3.68404407,6.78052326 2.95585821,3.83284884 6.07591331,1.05959302 C6.50439158,0.640988372 7.33582119,0 7.33582119,0 M6,1 L10.0575083,5.44114286 C11.211489,6.58628571 12.0022294,8.04914286 12,9.50057143 C11.9961259,12.0123429 10.1373839,14.4886857 7.41721578,15.2084571 C5.84651407,15.624 3.29864961,15.2553143 1.72559863,13.6969143 C-0.55219063,11.4402286 -0.574969444,7.79542857 1.65726218,5.50971429 C1.65726218,5.50971429 6,9.32457143 6,9.32457143 C7.7407256,11.0521143 8.39834006,12.9677714 7.41721578,15.2084571 C7.03591824,16.0790857 6.32680386,17.3286857 5.65032606,18" id="Stroke-34" stroke="#191C24" stroke-width="1.2"></path>
        </g>
    </g>
</svg>